<svg width="34" height="34" viewBox="0 0 34 34" fill="none" xmlns="http://www.w3.org/2000/svg">
<circle cx="17" cy="17" r="17" fill="url(#paint0_linear_4434_6525)"/>
<g clip-path="url(#clip0_4434_6525)">
<path d="M17 14C16.2044 14 15.4413 14.3161 14.8787 14.8787C14.3161 15.4413 14 16.2044 14 17C14 17.7956 14.3161 18.5587 14.8787 19.1213C15.4413 19.6839 16.2044 20 17 20C17.7956 20 18.5587 19.6839 19.1213 19.1213C19.6839 18.5587 20 17.7956 20 17C20 16.2044 19.6839 15.4413 19.1213 14.8787C18.5587 14.3161 17.7956 14 17 14ZM17 12C18.3261 12 19.5979 12.5268 20.5355 13.4645C21.4732 14.4021 22 15.6739 22 17C22 18.3261 21.4732 19.5979 20.5355 20.5355C19.5979 21.4732 18.3261 22 17 22C15.6739 22 14.4021 21.4732 13.4645 20.5355C12.5268 19.5979 12 18.3261 12 17C12 15.6739 12.5268 14.4021 13.4645 13.4645C14.4021 12.5268 15.6739 12 17 12ZM23.5 11.75C23.5 12.0815 23.3683 12.3995 23.1339 12.6339C22.8995 12.8683 22.5815 13 22.25 13C21.9185 13 21.6005 12.8683 21.3661 12.6339C21.1317 12.3995 21 12.0815 21 11.75C21 11.4185 21.1317 11.1005 21.3661 10.8661C21.6005 10.6317 21.9185 10.5 22.25 10.5C22.5815 10.5 22.8995 10.6317 23.1339 10.8661C23.3683 11.1005 23.5 11.4185 23.5 11.75ZM17 9C14.526 9 14.122 9.007 12.971 9.058C12.187 9.095 11.661 9.2 11.173 9.39C10.739 9.558 10.426 9.759 10.093 10.093C9.78001 10.3954 9.53935 10.7646 9.389 11.173C9.199 11.663 9.094 12.188 9.058 12.971C9.006 14.075 9 14.461 9 17C9 19.474 9.007 19.878 9.058 21.029C9.095 21.812 9.2 22.339 9.389 22.826C9.559 23.261 9.759 23.574 10.091 23.906C10.428 24.242 10.741 24.443 11.171 24.609C11.665 24.8 12.191 24.906 12.971 24.942C14.075 24.994 14.461 25 17 25C19.474 25 19.878 24.993 21.029 24.942C21.811 24.905 22.338 24.8 22.826 24.611C23.259 24.442 23.574 24.241 23.906 23.909C24.243 23.572 24.444 23.259 24.61 22.829C24.8 22.336 24.906 21.809 24.942 21.029C24.994 19.925 25 19.539 25 17C25 14.526 24.993 14.122 24.942 12.971C24.905 12.189 24.8 11.661 24.61 11.173C24.4593 10.765 24.2191 10.396 23.907 10.093C23.6047 9.77985 23.2355 9.53917 22.827 9.389C22.337 9.199 21.811 9.094 21.029 9.058C19.925 9.006 19.539 9 17 9ZM17 7C19.717 7 20.056 7.01 21.122 7.06C22.187 7.11 22.912 7.277 23.55 7.525C24.21 7.779 24.766 8.123 25.322 8.678C25.8305 9.1779 26.224 9.78259 26.475 10.45C26.722 11.087 26.89 11.813 26.94 12.878C26.987 13.944 27 14.283 27 17C27 19.717 26.99 20.056 26.94 21.122C26.89 22.187 26.722 22.912 26.475 23.55C26.2247 24.2178 25.8311 24.8226 25.322 25.322C24.822 25.8303 24.2173 26.2238 23.55 26.475C22.913 26.722 22.187 26.89 21.122 26.94C20.056 26.987 19.717 27 17 27C14.283 27 13.944 26.99 12.878 26.94C11.813 26.89 11.088 26.722 10.45 26.475C9.78233 26.2245 9.17753 25.8309 8.678 25.322C8.16941 24.8222 7.77593 24.2175 7.525 23.55C7.277 22.913 7.11 22.187 7.06 21.122C7.013 20.056 7 19.717 7 17C7 14.283 7.01 13.944 7.06 12.878C7.11 11.812 7.277 11.088 7.525 10.45C7.77524 9.78218 8.1688 9.17732 8.678 8.678C9.17767 8.16923 9.78243 7.77573 10.45 7.525C11.088 7.277 11.812 7.11 12.878 7.06C13.944 7.013 14.283 7 17 7Z" fill="white"/>
</g>
<defs>
<linearGradient id="paint0_linear_4434_6525" x1="2.50091" y1="1.20097e-07" x2="31.4991" y2="34" gradientUnits="userSpaceOnUse">
<stop stop-color="#405DE6"/>
<stop offset="0.153889" stop-color="#5B51D8"/>
<stop offset="0.29813" stop-color="#833AB4"/>
<stop offset="0.437562" stop-color="#C13584"/>
<stop offset="0.567378" stop-color="#DF2951"/>
<stop offset="0.682771" stop-color="#F56040"/>
<stop offset="0.798163" stop-color="#FA915A"/>
<stop offset="0.884707" stop-color="#FDAA66"/>
<stop offset="1" stop-color="#FFDC80"/>
</linearGradient>
<clipPath id="clip0_4434_6525">
<rect width="24" height="24" fill="white" transform="translate(5 5)"/>
</clipPath>
</defs>
</svg>
