<svg width="34" height="34" viewBox="0 0 34 34" fill="none" xmlns="http://www.w3.org/2000/svg">
<circle cx="17" cy="17" r="17" fill="#0077B5"/>
<g clip-path="url(#clip0_4434_6526)">
<path d="M11.9414 10C11.9411 10.5305 11.7302 11.0391 11.3549 11.4139C10.9797 11.7888 10.4708 11.9993 9.94041 11.999C9.40997 11.9988 8.90137 11.7878 8.52649 11.4125C8.1516 11.0373 7.94114 10.5285 7.94141 9.99802C7.94167 9.46759 8.15264 8.95899 8.5279 8.5841C8.90316 8.20922 9.41197 7.99876 9.94241 7.99902C10.4728 7.99929 10.9814 8.21026 11.3563 8.58552C11.7312 8.96078 11.9417 9.46959 11.9414 10ZM12.0014 13.48H8.00141V26H12.0014V13.48ZM18.3214 13.48H14.3414V26H18.2814V19.43C18.2814 15.77 23.0514 15.43 23.0514 19.43V26H27.0014V18.07C27.0014 11.9 19.9414 12.13 18.2814 15.16L18.3214 13.48Z" fill="white"/>
</g>
<defs>
<clipPath id="clip0_4434_6526">
<rect width="24" height="24" fill="white" transform="translate(5 5)"/>
</clipPath>
</defs>
</svg>
