<svg width="38" height="38" viewBox="0 0 38 38" fill="none" xmlns="http://www.w3.org/2000/svg">
<circle cx="19" cy="19" r="19" fill="#FF8A08"/>
<g clip-path="url(#clip0_2950_4070)">
<path d="M19 29C13.477 29 9 24.523 9 19C9 13.477 13.477 9 19 9C24.523 9 29 13.477 29 19C29 24.523 24.523 29 19 29ZM19 27C21.1217 27 23.1566 26.1571 24.6569 24.6569C26.1571 23.1566 27 21.1217 27 19C27 16.8783 26.1571 14.8434 24.6569 13.3431C23.1566 11.8429 21.1217 11 19 11C16.8783 11 14.8434 11.8429 13.3431 13.3431C11.8429 14.8434 11 16.8783 11 19C11 21.1217 11.8429 23.1566 13.3431 24.6569C14.8434 26.1571 16.8783 27 19 27ZM18.003 23L13.76 18.757L15.174 17.343L18.003 20.172L23.659 14.515L25.074 15.929L18.003 23Z" fill="white"/>
</g>
<defs>
<clipPath id="clip0_2950_4070">
<rect width="24" height="24" fill="white" transform="translate(7 7)"/>
</clipPath>
</defs>
</svg>
